<svg xmlns:xlink="http://www.w3.org/1999/xlink" xmlns="http://www.w3.org/2000/svg" id="Business_support" width="106.76" height="35.38" viewBox="0 0 106.76 35.38"><defs><style>.cls-1{fill:#fff;}</style></defs><path class="cls-1" d="M37.43,13.73l7.42-7.42,3.21,3.21-7.42,7.42-3.21-3.21ZM36.37,13.73l4.27,4.27,8.48-8.48-4.27-4.27-8.48,8.48Z"/><rect class="cls-1" x="37.96" y="12.38" width="7.34" height=".75" transform="translate(3.18 33.17) rotate(-45)"/><path class="cls-1" d="M54.14,30.21c-.5,0-1-.19-1.39-.58l-9.86-9.86c-.24-.24-.41-.57-.46-.91l-.2-1.25c-.02-.12-.07-.22-.15-.3l-.9-.9.53-.53.9.9c.19.19.32.44.36.71l.2,1.25c.03.19.12.36.25.5l9.86,9.86c.46.46,1.19.48,1.63.04.21-.21.32-.5.32-.8,0-.31-.13-.61-.36-.83l-2.61-2.61.53-.53,2.61,2.61c.36.36.57.84.58,1.35.01.51-.18.99-.54,1.35-.36.36-.83.54-1.31.54"/><path class="cls-1" d="M56.24,28.1c-.5,0-.97-.19-1.32-.55l-2.65-2.65.53-.53,2.65,2.65c.43.42,1.16.42,1.59,0,.21-.21.33-.49.33-.79s-.12-.58-.33-.79l-2.65-2.65.53-.53,2.65,2.65c.35.35.55.82.55,1.32s-.19.97-.55,1.33c-.35.35-.82.55-1.32.55"/><path class="cls-1" d="M58.36,25.98c-.48,0-.96-.18-1.32-.55l-2.65-2.65.53-.53,2.65,2.65c.44.44,1.15.44,1.59,0,.44-.44.44-1.15,0-1.59l-2.65-2.65.53-.53,2.65,2.65c.73.73.73,1.92,0,2.65-.36.37-.84.55-1.32.55"/><path class="cls-1" d="M60.48,23.86c-.5,0-.97-.19-1.32-.55l-2.65-2.65.53-.53,2.65,2.65c.42.42,1.16.42,1.59,0,.21-.21.33-.49.33-.79s-.12-.58-.33-.79l-1.94-1.95.53-.53,1.94,1.94c.35.35.55.82.55,1.32s-.19.97-.55,1.32c-.35.35-.82.55-1.32.55"/><path class="cls-1" d="M52.6,12.96l-.79-.79c-.06-.06-.14-.1-.23-.1l-1.57-.05c-.37-.01-.71-.16-.97-.42l-1.52-1.53.53-.53,1.53,1.53c.12.12.29.19.46.2l1.57.05c.28,0,.54.12.74.32l.79.8-.53.53Z"/><path class="cls-1" d="M65.04,17.38l-8.48-8.48,4.27-4.27,8.48,8.48-4.27,4.27ZM57.62,8.9l7.42,7.42,3.21-3.21-7.42-7.42-3.21,3.21Z"/><rect class="cls-1" x="61.44" y="6.22" width=".75" height="7.33" transform="translate(11.11 46.6) rotate(-44.99)"/><path class="cls-1" d="M50.52,18.55c-.51,0-.98-.2-1.34-.55-.36-.36-.56-.83-.56-1.34s.2-.98.56-1.34l4.01-4.01c.21-.21.49-.34.79-.36l2.42-.16c.19-.01.37-.09.51-.23l1.19-1.19.53.53-1.19,1.19c-.26.26-.62.42-.99.45l-2.42.16c-.12,0-.23.06-.31.14l-4.01,4.01c-.22.22-.34.5-.34.81s.12.59.34.81c.43.43,1.18.43,1.62,0l3.16-3.16,1.77.05v1.07c0,.99.8,1.79,1.79,1.79h.62c.99,0,1.79-.8,1.79-1.79v-.38h.75v.38c0,1.4-1.14,2.54-2.54,2.54h-.62c-1.4,0-2.54-1.14-2.54-2.54v-.34l-.72-.02-2.93,2.93c-.36.36-.83.55-1.34.55"/><path class="cls-1" d="M44.61,24.39c-.38,0-.74-.15-1.01-.42l-.14-.14c-.27-.27-.42-.63-.42-1.01s.15-.74.42-1.01l1.27-1.27,2.16,2.16-1.27,1.27c-.27.27-.63.42-1.01.42M44.73,21.61l-.74.74c-.13.13-.2.3-.2.48s.07.35.2.48l.14.14c.25.26.7.26.95,0l.74-.74-1.1-1.1Z"/><path class="cls-1" d="M46.24,26.02c-.36,0-.73-.14-1.01-.42l-.14-.14c-.56-.56-.56-1.46,0-2.02l1.27-1.27,2.16,2.16-1.27,1.27c-.28.28-.64.42-1.01.42M46.36,23.24l-.74.74c-.26.26-.26.69,0,.95l.14.14c.26.26.69.26.95,0l.74-.74-1.1-1.1Z"/><path class="cls-1" d="M47.87,27.65c-.38,0-.74-.15-1.01-.42l-.14-.14c-.56-.56-.56-1.46,0-2.02l1.27-1.27,2.16,2.16-1.27,1.27c-.27.27-.63.42-1.01.42M47.99,24.86l-.74.74c-.26.26-.26.69,0,.95l.14.14c.26.25.7.25.95,0l.74-.74-1.1-1.1Z"/><path class="cls-1" d="M49.49,29.27c-.36,0-.73-.14-1.01-.42l-.14-.14c-.56-.56-.56-1.46,0-2.02l1.27-1.27,2.16,2.16-1.27,1.27c-.28.28-.64.42-1.01.42M49.61,26.49l-.74.74c-.26.26-.26.69,0,.95l.14.14c.26.26.69.26.95,0l.74-.74-1.1-1.1Z"/><path class="cls-1" d="M61.5,21.16l-.53-.53,1.38-1.38c.13-.13.21-.31.22-.49l.03-.69c.01-.31.14-.59.36-.81l1.51-1.51.53.53-1.51,1.51c-.08.08-.13.19-.14.31l-.03.69c-.02.38-.17.73-.44,1l-1.38,1.38Z"/></svg>