<svg xmlns:xlink="http://www.w3.org/1999/xlink" xmlns="http://www.w3.org/2000/svg" id="Electricity" width="106.76" height="35.38" viewBox="0 0 106.76 35.38"><defs><style>.cls-1{fill:#fff;}</style></defs><path class="cls-1" d="M62.14,21.07h-.57v-.28c0-3.3-1.83-6.29-4.78-7.78l-.25-.13.26-.51.25.13c3.14,1.6,5.09,4.77,5.09,8.29v.28Z"/><path class="cls-1" d="M45.29,26.22l-.16-.24c-1.04-1.54-1.59-3.33-1.59-5.2,0-3.41,1.86-6.54,4.87-8.17l.25-.14.27.5-.25.14c-2.82,1.53-4.57,4.47-4.57,7.67,0,1.75.51,3.43,1.49,4.88l.16.24-.47.32Z"/><path class="cls-1" d="M56.47,29.35l-.24-.52.26-.12c.2-.09.39-.19.58-.3l.25-.14.28.5-.25.14c-.2.11-.41.22-.62.32l-.26.12ZM58.11,28.45l-.34-.46.23-.17c.29-.22.58-.46.85-.71l.21-.2.39.41-.21.2c-.28.27-.59.52-.9.75l-.23.17ZM59.86,26.89l-.44-.36.18-.22c.23-.28.45-.59.64-.9l.15-.24.48.3-.15.24c-.21.33-.44.65-.69.95l-.18.22ZM61.16,24.94l-.52-.24.12-.26c.15-.33.29-.68.4-1.03l.09-.27.54.17-.09.27c-.12.37-.26.74-.42,1.1l-.12.26Z"/><path class="cls-1" d="M52.98,28.65c-2,0-3.62-1.63-3.62-3.62v-2.57h7.24v2.57c0,2-1.63,3.62-3.62,3.62M49.93,23.02v2c0,1.68,1.37,3.05,3.05,3.05s3.05-1.37,3.05-3.05v-2h-6.11Z"/><path class="cls-1" d="M57.2,23.02h-8.44v-1.71h8.44v1.71ZM49.34,22.45h7.3v-.57h-7.3v.57Z"/><path class="cls-1" d="M52.26,21.89h-1.85v-3.29c0-.51.41-.93.92-.93s.92.42.92.93v3.29ZM50.98,21.32h.71v-2.72c0-.2-.16-.36-.36-.36s-.36.16-.36.36v2.72Z"/><path class="cls-1" d="M55.56,21.89h-1.85v-3.29c0-.51.41-.93.92-.93s.93.42.93.93v3.29ZM54.27,21.32h.71v-2.72c0-.2-.16-.36-.36-.36s-.36.16-.36.36v2.72Z"/><path class="cls-1" d="M55.65,31.47c-.66,0-1.34-.28-1.89-.79-.67-.62-1.06-1.46-1.06-2.31v-.28h.57v.28c0,.68.33,1.39.88,1.89.49.45,1.09.68,1.65.64l.28-.02.05.57-.28.02c-.06,0-.13,0-.19,0"/><path class="cls-1" d="M56,31.46l-.18-.54.27-.09c4.27-1.41,7.14-5.37,7.14-9.87,0-3.81-2.08-7.32-5.44-9.14l-.25-.14.27-.5.25.14c3.54,1.92,5.74,5.62,5.74,9.64,0,4.74-3.02,8.93-7.53,10.41l-.27.09Z"/><path class="cls-1" d="M50.34,31.64l-.28-.07c-4.82-1.26-8.19-5.62-8.19-10.61,0-4.39,2.61-8.35,6.65-10.08l.26-.11.22.52-.26.11c-3.83,1.64-6.3,5.39-6.3,9.56,0,4.73,3.19,8.86,7.76,10.06l.28.07-.14.55Z"/><rect class="cls-1" x="52.7" y="22.45" width=".57" height="2.1"/><path class="cls-1" d="M52.98,25.75c-.49,0-.89-.4-.89-.89s.4-.89.89-.89.89.4.89.89-.4.89-.89.89M52.98,24.55c-.17,0-.32.14-.32.32s.14.32.32.32.32-.14.32-.32-.14-.32-.32-.32"/><path class="cls-1" d="M50.68,16.53c-.09,0-.19-.03-.27-.08-.21-.13-.3-.37-.23-.6l1.66-5.21-.04-.05h-2.06c-.25,0-.47-.15-.56-.37-.09-.23-.04-.49.13-.66l5.34-5.34c.18-.18.44-.21.65-.08.21.13.3.38.22.61l-1.75,5.24,2.17.03c.25,0,.46.15.56.37.09.23.04.49-.13.66l-5.33,5.33c-.1.1-.23.16-.37.16M49.71,9.94s-.02.02,0,.04l2.09.02c.2,0,.37.09.49.25.11.16.15.36.09.54l-1.6,5.03,5.19-5.2-.02-.06h-2.15c-.19,0-.37-.09-.48-.25-.11-.16-.14-.36-.08-.54l1.69-5.06-5.21,5.21Z"/></svg>