<svg xmlns:xlink="http://www.w3.org/1999/xlink" xmlns="http://www.w3.org/2000/svg" id="Gas" width="106.76" height="35.38" viewBox="0 0 106.76 35.38"><defs><style>.cls-1{fill:#fff;}</style></defs><path class="cls-1" d="M59.3,30.95h-15.61V6.96c0-1.69,1.38-3.07,3.06-3.07h9.48c1.69,0,3.07,1.38,3.07,3.07v23.99ZM44.49,30.16h14.02V6.96c0-1.25-1.02-2.27-2.27-2.27h-9.48c-1.25,0-2.27,1.02-2.27,2.27v23.2Z"/><path class="cls-1" d="M56.99,13.8h-10.98v-5.44h10.98v5.44ZM46.8,13.01h9.4v-3.85h-9.4v3.85Z"/><path class="cls-1" d="M63.85,30.25c-1.1,0-2-.89-2-2v-11.9c0-.66-.54-1.2-1.2-1.2h-2.14v-.79h2.14c1.1,0,2,.9,2,2v11.9c0,.66.54,1.2,1.2,1.2s1.2-.54,1.2-1.2v-12.68h.79v12.68c0,1.1-.9,2-2,2"/><path class="cls-1" d="M67.24,16.05h-3.45l-.04-2.91-.86-.5c-.83-.48-1.11-1.54-.63-2.37l.61-1.06c.18-.31.45-.55.76-.7l-1.13-1.63c-.16-.23-.22-.51-.17-.79.05-.28.21-.52.44-.68.43-.3,1.02-.23,1.38.15l2.81,3.01c.18.19.27.45.27.73v6.76ZM64.56,15.26h1.88v-5.97c0-.08-.03-.14-.07-.18l-2.81-3.01c-.09-.1-.24-.11-.35-.04-.06.04-.1.1-.11.17-.01.07,0,.14.04.2l1.84,2.66-.69.05c-.31.02-.59.2-.75.47l-.61,1.06c-.26.45-.1,1.02.34,1.28l1.25.72.03,2.58Z"/><path class="cls-1" d="M64.69,11.98l-.36-.18c-.27-.13-.47-.36-.56-.64-.09-.28-.08-.59.06-.85.13-.27.36-.47.64-.56.28-.09.58-.07.85.06l.35.18-.35.71-.35-.18c-.08-.04-.17-.05-.25-.02-.08.03-.15.09-.19.16-.04.08-.04.16-.02.25.03.08.08.15.16.19l.35.18-.35.71Z"/><path class="cls-1" d="M51.5,26.33c-1.45,0-3-.93-3-3.56,0-2.3,2.57-5.64,2.68-5.78l.31-.4.31.4c.11.14,2.68,3.49,2.68,5.78,0,2.63-1.55,3.56-3,3.56M51.5,17.9c-.67.95-2.2,3.29-2.2,4.87,0,1.76.8,2.77,2.2,2.77s2.2-1.01,2.2-2.77c0-1.59-1.53-3.92-2.2-4.87"/></svg>