<svg width="12" height="12" viewBox="0 0 12 12" fill="none" xmlns="http://www.w3.org/2000/svg">
<path d="M7.875 3.5625H3.72656C4.07812 1.47656 4.875 0 5.8125 0C6.72656 0 7.54688 1.47656 7.875 3.5625ZM3.5625 5.8125C3.5625 5.29688 3.58594 4.80469 3.63281 4.3125H7.96875C8.01562 4.80469 8.03906 5.29688 8.03906 5.8125C8.03906 6.35156 8.01562 6.84375 7.96875 7.3125H3.63281C3.58594 6.84375 3.5625 6.35156 3.5625 5.8125ZM11.1562 3.5625H8.625C8.41406 2.25 8.03906 1.05469 7.45312 0.257812C9.14062 0.75 10.5 1.99219 11.1562 3.5625ZM4.14844 0.257812C3.5625 1.05469 3.1875 2.25 2.97656 3.5625H0.445312C1.10156 1.99219 2.46094 0.75 4.14844 0.257812ZM11.4141 4.3125C11.5312 4.80469 11.6016 5.29688 11.6016 5.8125C11.6016 6.35156 11.5312 6.84375 11.4141 7.3125H8.71875C8.76562 6.82031 8.8125 6.32812 8.8125 5.8125C8.8125 5.32031 8.76562 4.80469 8.71875 4.3125H11.4141ZM2.8125 5.8125C2.8125 6.32812 2.83594 6.82031 2.88281 7.3125H0.1875C0.0703125 6.84375 0 6.35156 0 5.8125C0 5.29688 0.0703125 4.80469 0.1875 4.3125H2.88281C2.83594 4.80469 2.8125 5.32031 2.8125 5.8125ZM3.72656 8.0625H7.875C7.54688 10.1719 6.72656 11.625 5.8125 11.625C4.875 11.625 4.07812 10.1719 3.72656 8.0625ZM7.45312 11.3906C8.03906 10.5938 8.4375 9.39844 8.625 8.0625H11.1562C10.5 9.65625 9.14062 10.8984 7.45312 11.3906ZM0.445312 8.0625H2.97656C3.1875 9.39844 3.5625 10.5938 4.14844 11.3906C2.46094 10.8984 1.10156 9.65625 0.445312 8.0625Z" fill="#DEDEE2"/>
</svg>
