<svg width="150" height="85" viewBox="0 0 150 85" fill="none" xmlns="http://www.w3.org/2000/svg">
<g clip-path="url(#clip0_7358_322973)">
<g clip-path="url(#clip1_7358_322973)">
<mask id="mask0_7358_322973" style="mask-type:luminance" maskUnits="userSpaceOnUse" x="0" y="17" width="150" height="51">
<path d="M149.699 17H0V68H149.699V17Z" fill="white"/>
</mask>
<g mask="url(#mask0_7358_322973)">
<path d="M49.722 17L0 35.146L49.722 26.3635V17Z" fill="#FFCD00"/>
<path d="M127.572 64.1343C127.572 64.3667 127.556 64.6677 127.54 64.7786H123.062C123.141 65.8137 123.843 66.2361 124.641 66.2361C125.111 66.2361 125.549 66.0937 125.924 65.7187L127.239 66.8276C126.553 67.6885 125.502 68.0002 124.562 68.0002C122.402 68.0002 121.166 66.3418 121.166 64.166C121.166 61.8001 122.623 60.3002 124.435 60.3002C126.373 60.3002 127.567 62.006 127.567 64.1343H127.572ZM123.093 63.3368H125.723C125.66 62.5077 125.127 61.9426 124.377 61.9426C123.484 61.9426 123.141 62.7242 123.093 63.3368ZM149.7 64.1343C149.7 64.3667 149.684 64.6677 149.668 64.7786H145.19C145.269 65.8137 145.971 66.2361 146.769 66.2361C147.239 66.2361 147.677 66.0937 148.052 65.7187L149.367 66.8276C148.681 67.6885 147.63 68.0002 146.69 68.0002C144.53 68.0002 143.294 66.3418 143.294 64.166C143.294 61.8001 144.751 60.3002 146.563 60.3002C148.501 60.3002 149.695 62.006 149.695 64.1343H149.7ZM145.227 63.3368H147.857C147.793 62.5077 147.26 61.9426 146.51 61.9426C145.618 61.9426 145.274 62.7242 145.227 63.3368ZM141.503 65.2117L142.723 66.3681C142.095 67.1657 141.234 67.9948 139.782 67.9948C137.764 67.9948 136.275 66.3841 136.275 64.1608C136.275 62.1275 137.511 60.295 139.814 60.295C141.129 60.295 142.037 60.8917 142.708 61.8898L141.456 63.1572C141.018 62.5763 140.548 62.1222 139.798 62.1222C138.778 62.1222 138.25 62.983 138.25 64.1237C138.25 65.1905 138.72 66.1412 139.814 66.1412C140.484 66.1412 141.049 65.7819 141.503 65.2011V65.2117ZM124.472 52.9436H122.655V52.426C122.248 52.8801 121.588 53.0967 120.933 53.0967C119.022 53.0967 118.303 51.7182 118.303 49.7325V45.5552H120.152V49.5794C120.152 50.5829 120.358 51.3328 121.388 51.3328C122.417 51.3328 122.623 50.5512 122.623 49.6428V45.5605H124.472V52.9489V52.9436ZM130.234 50.7836L129.97 52.6637C129.595 52.9593 128.903 53.102 128.454 53.102C127.329 53.102 126.452 52.257 126.452 50.9103V47.3244H125.385V45.5552H126.452V43.6275L128.301 42.6875V45.55H130.054V47.3192H128.301V50.4191C128.301 51.0635 128.565 51.2958 129.019 51.2958C129.473 51.2958 129.943 51.0635 130.239 50.7783L130.234 50.7836ZM102.185 52.9436H100.337V48.9192C100.337 47.9159 100.12 47.1818 99.0853 47.1818C98.0503 47.1818 97.8178 47.8524 97.8178 48.8719V52.9436H95.9695V43.633L97.8178 42.6929V46.0728C98.2246 45.6662 98.7262 45.4021 99.5554 45.4021C101.509 45.4021 102.185 46.9071 102.185 48.782V52.9436ZM135.145 67.8416H133.233V63.8174C133.233 62.7822 133.001 62.0957 131.966 62.0957C130.994 62.0957 130.682 62.6766 130.682 63.7698V67.8416H128.771V60.4534H130.682V60.9551C131.073 60.5642 131.654 60.3002 132.483 60.3002C134.485 60.3002 135.145 61.8476 135.145 63.6642V67.8416ZM111.264 59.8144C111.876 59.8144 112.357 59.3285 112.357 58.7211C112.357 58.1138 111.871 57.628 111.264 57.628C110.656 57.628 110.17 58.1138 110.17 58.7211C110.17 59.3285 110.656 59.8144 111.264 59.8144ZM62.4607 59.8144C63.0733 59.8144 63.5537 59.3285 63.5537 58.7211C63.5537 58.1138 63.0679 57.628 62.4607 57.628C61.8533 57.628 61.3675 58.1138 61.3675 58.7211C61.3675 59.3285 61.8533 59.8144 62.4607 59.8144ZM149.7 49.2362C149.7 49.4685 149.684 49.7696 149.668 49.8804H145.19C145.269 50.9156 145.971 51.3381 146.769 51.3381C147.239 51.3381 147.677 51.1955 148.052 50.8205L149.367 51.9296C148.681 52.7905 147.63 53.102 146.69 53.102C144.53 53.102 143.294 51.4438 143.294 49.2678C143.294 46.9019 144.751 45.4021 146.563 45.4021C148.501 45.4021 149.695 47.1078 149.695 49.2362H149.7ZM145.227 48.4334H147.857C147.793 47.6043 147.26 47.0393 146.51 47.0393C145.618 47.0393 145.274 47.8208 145.227 48.4334ZM137.257 52.9436H135.441V52.426C135.034 52.8801 134.374 53.0967 133.719 53.0967C131.807 53.0967 131.089 51.7182 131.089 49.7325V45.5552H132.937V49.5794C132.937 50.5829 133.143 51.3328 134.173 51.3328C135.203 51.3328 135.409 50.5512 135.409 49.6428V45.5605H137.257V52.9489V52.9436ZM109.526 49.2362C109.526 49.4685 109.51 49.7696 109.495 49.8804H105.016C105.095 50.9156 105.798 51.3381 106.595 51.3381C107.065 51.3381 107.503 51.1955 107.878 50.8205L109.193 51.9296C108.507 52.7905 107.456 53.102 106.516 53.102C104.356 53.102 103.12 51.4438 103.12 49.2678C103.12 46.9019 104.578 45.4021 106.389 45.4021C108.327 45.4021 109.521 47.1078 109.521 49.2362H109.526ZM105.048 48.4334H107.678C107.614 47.6043 107.081 47.0393 106.331 47.0393C105.439 47.0393 105.095 47.8208 105.048 48.4334ZM120.03 67.8416H118.119V67.3558C117.49 67.81 117.115 68.0002 116.444 68.0002C114.316 68.0002 113.408 66.1517 113.408 64.0868C113.408 61.8476 114.475 60.3002 116.397 60.3002C117.041 60.3002 117.649 60.4745 118.119 60.8969V58.5309L120.03 57.5752V67.8416ZM118.119 65.5602V62.7453C117.712 62.3071 117.321 62.1011 116.788 62.1011C115.679 62.1011 115.409 62.9777 115.409 64.0286C115.409 65.2169 115.753 66.2045 116.835 66.2045C117.369 66.2045 117.744 65.9721 118.119 65.5602ZM110.292 60.4586V67.847H112.204V60.4586H110.292ZM109.183 57.8286V59.3601C108.903 59.265 108.528 59.2175 108.243 59.2175C107.694 59.2175 107.445 59.3918 107.445 59.8619V60.4586H109.024V62.2436H107.445V67.847H105.534V62.2436H104.498V60.4586H105.534V59.5661C105.534 58.1877 106.394 57.628 107.789 57.628C108.195 57.628 108.792 57.6755 109.183 57.8339V57.8286ZM103.564 67.8416H101.652V63.8174C101.652 62.7822 101.42 62.0957 100.384 62.0957C99.4128 62.0957 99.1012 62.6766 99.1012 63.7698V67.8416H97.1894V60.4534H99.1012V60.9551C99.492 60.5642 100.073 60.3002 100.902 60.3002C102.904 60.3002 103.564 61.8476 103.564 63.6642V67.8416ZM92.5895 60.3002C90.4612 60.3002 89.1304 61.9743 89.1304 64.1501C89.1304 66.4368 90.5879 68.0002 92.5895 68.0002C94.5911 68.0002 96.0487 66.4368 96.0487 64.1501C96.0487 61.8633 94.7179 60.3002 92.5895 60.3002ZM92.5895 66.1517C91.3696 66.1517 91.1002 64.9793 91.1002 64.1501C91.1002 63.0093 91.5703 62.1327 92.5895 62.1327C93.6088 62.1327 94.0789 63.0093 94.0789 64.1501C94.0789 64.9793 93.8147 66.1517 92.5895 66.1517ZM87.2874 65.2117L88.5071 66.3681C87.8788 67.1657 87.018 67.9948 85.5657 67.9948C83.5483 67.9948 82.0589 66.3841 82.0589 64.1608C82.0589 62.1275 83.2948 60.295 85.5973 60.295C86.9123 60.295 87.8206 60.8917 88.4914 61.8898L87.2398 63.1572C86.8013 62.5763 86.3314 62.1222 85.5814 62.1222C84.5621 62.1222 84.0341 62.983 84.0341 64.1237C84.0341 65.1905 84.5041 66.1412 85.5973 66.1412C86.2679 66.1412 86.8332 65.7819 87.2874 65.2011V65.2117ZM77.4115 67.8416H75.4997V63.8174C75.4997 62.7822 75.2674 62.0957 74.2322 62.0957C73.2605 62.0957 72.9331 62.6766 72.9331 63.7698V67.8416H71.0213V58.5309L72.9331 57.5752V60.9551C73.2922 60.5166 74.0422 60.3002 74.7815 60.3002C76.7197 60.3002 77.4115 61.8317 77.4115 63.6642V67.8416ZM69.8489 65.6183L69.569 67.5459C69.1783 67.8575 68.2383 68.0002 67.7365 68.0002C66.5798 68.0002 65.7508 67.0758 65.7508 65.7926V62.2383H64.4674V60.4534H65.7508V58.5257L67.6625 57.5699V60.4481H69.8225V62.2331H67.6625V65.2697C67.6625 65.9405 67.9108 66.1622 68.365 66.1622C68.819 66.1622 69.5215 65.9299 69.8542 65.6131L69.8489 65.6183ZM61.51 60.4586V67.847H63.4217V60.4586H61.51ZM60.5066 60.4586L58.1723 67.847H56.419L55.1674 63.3527L53.8999 67.847H52.1465L49.8281 60.4586H51.9565L53.0654 64.7469L54.317 60.4586H56.0546L57.3063 64.7469L58.4311 60.4586H60.496H60.5066ZM117.839 42.941V44.4568C117.416 44.3459 117.136 44.2984 116.883 44.2984C116.228 44.2984 116.085 44.5307 116.085 44.9109V45.5552H117.337V47.3402H116.085V52.9436H114.237V47.3402H113.329V45.5552H114.237V44.6627C114.237 43.3794 114.908 42.7246 116.476 42.7246C116.978 42.7246 117.385 42.8197 117.839 42.941ZM95.1245 50.7836L94.8604 52.6637C94.4854 52.9593 93.8254 53.102 93.3712 53.102C92.2462 53.102 91.3696 52.257 91.3696 50.9103V47.3244H90.0863V45.5552H91.3696V43.6275L93.218 42.6875V45.55H94.9396V47.3192H93.218V50.4191C93.218 51.0635 93.482 51.2958 93.9362 51.2958C94.3904 51.2958 94.8288 51.0635 95.1245 50.7783V50.7836ZM86.5321 49.2362C86.5321 49.4685 86.5162 49.7696 86.5005 49.8804H82.1805C82.2596 50.9156 82.9779 51.3381 83.7753 51.3381C84.2453 51.3381 84.6679 51.1955 85.0427 50.8205L86.3578 51.9296C85.7452 52.7429 84.6361 53.102 83.6485 53.102C81.536 53.102 80.2844 51.4437 80.2844 49.2837C80.2844 47.1237 81.647 45.4021 83.5693 45.4021C85.6343 45.4021 86.5268 47.2821 86.5268 49.2362H86.5321ZM82.2121 48.4334H84.842C84.7628 47.6043 84.277 47.0393 83.4796 47.0393C82.6346 47.0393 82.2596 47.8208 82.2121 48.4334ZM79.4131 49.2678C79.4131 51.1638 78.6314 53.102 76.5349 53.102C75.7216 53.102 75.2198 52.8062 74.8924 52.4894V54.7443L73.0441 55.6687V45.5605H74.8924V46.0622C75.3783 45.6239 75.88 45.4073 76.5665 45.4073C78.5522 45.4073 79.4131 47.2874 79.4131 49.2731V49.2678ZM77.5013 49.3577C77.5013 48.2803 77.2214 47.1818 76.1071 47.1818C75.5896 47.1818 75.183 47.4142 74.8871 47.8367V50.6516C75.183 51.074 75.6845 51.3223 76.2179 51.3223C77.2531 51.3223 77.5013 50.3822 77.5013 49.3523V49.3577ZM71.7607 52.9436H69.9122V52.426C69.4739 52.8644 68.9089 53.0967 68.1907 53.0967C66.733 53.0967 65.5924 52.1567 65.5924 50.5301C65.5924 48.9035 66.7013 48.0426 68.4706 48.0426C68.9405 48.0426 69.4264 48.1059 69.9122 48.3384V47.9476C69.9122 47.261 69.4582 46.9759 68.6449 46.9759C68.0639 46.9759 67.5199 47.1185 66.9391 47.4617L66.205 46.1466C67.0024 45.645 67.7682 45.3968 68.7558 45.3968C70.6199 45.3968 71.7607 46.3052 71.7607 47.9792V52.9382V52.9436ZM69.9122 50.7836V49.8436C69.5374 49.6112 69.0516 49.532 68.6766 49.532C67.8633 49.532 67.4725 49.8911 67.4725 50.4878C67.4725 51.0528 67.8316 51.507 68.5234 51.507C68.8825 51.507 69.511 51.3803 69.9176 50.7888L69.9122 50.7836ZM64.5784 52.9436H62.7299V48.9192C62.7299 47.9159 62.5135 47.1818 61.4783 47.1818C60.4432 47.1818 60.2108 47.8524 60.2108 48.8719V52.9436H58.3624V43.633L60.2108 42.6929V46.0728C60.6175 45.6662 61.1193 45.4021 61.9483 45.4021C63.9024 45.4021 64.5784 46.9071 64.5784 48.782V52.9436ZM57.3431 49.986C57.3431 52.2095 55.6532 53.102 53.6516 53.102C52.2098 53.102 50.615 52.6478 49.7225 51.3328L51.1009 50.1128C51.7451 50.8785 52.664 51.2378 53.6041 51.2378C54.7132 51.2378 55.3574 50.736 55.3574 50.0336C55.3574 49.7537 55.2466 49.4685 54.7765 49.2362C54.4333 49.0619 54.0107 48.9563 53.1817 48.7504C52.664 48.6236 51.6026 48.3754 50.9425 47.842C50.2823 47.3086 50.0974 46.5428 50.0974 45.8722C50.0974 43.7914 51.8825 42.9464 53.6359 42.9464C55.1515 42.9464 56.2499 43.5748 57.1267 44.462L55.7483 45.8087C55.1039 45.1644 54.4808 44.8053 53.5091 44.8053C52.6799 44.8053 52.0673 45.0693 52.0673 45.7611C52.0673 46.0569 52.1782 46.2629 52.474 46.4319C52.8172 46.622 53.303 46.7594 54.053 46.9494C54.9455 47.1818 55.7747 47.3878 56.4454 47.9371C57.0421 48.4229 57.3379 49.0619 57.3379 49.986H57.3431ZM143.378 45.8985L142.623 47.7469C142.343 47.4829 142.01 47.2926 141.556 47.2926C140.68 47.2926 140.463 48.0267 140.463 48.9192V52.9436H138.615V45.5552H140.463V46.0728C140.886 45.6503 141.419 45.4021 142.01 45.4021C142.528 45.4021 142.982 45.5604 143.373 45.9038L143.378 45.8985ZM7.98035 57.9079H17.0744V52.6267H7.98035V48.4757H18.0409L14.7032 42.6929H0.433594V67.8416H20.5547V62.0588H7.98035V57.9079ZM33.9478 42.6929L29.6753 50.8997L25.4134 42.6929H17.0744L25.8623 57.9079V67.8416H33.3826V57.9079L42.181 42.6929H33.9478Z" fill="white"/>
</g>
</g>
</g>
<defs>
<clipPath id="clip0_7358_322973">
<rect width="150" height="51" fill="white" transform="translate(0 17)"/>
</clipPath>
<clipPath id="clip1_7358_322973">
<rect width="150" height="51" fill="white" transform="translate(0 17)"/>
</clipPath>
</defs>
</svg>
