<svg width="56" height="56" viewBox="0 0 56 56" fill="none" xmlns="http://www.w3.org/2000/svg">
<path d="M17.1531 20.3561C16.6838 20.3561 16.3187 19.991 16.3187 19.5217V17.4357C16.3187 17.0186 16.6838 16.6014 17.1531 16.6014H38.8469C39.2641 16.6014 39.6813 17.0186 39.6813 17.4357V19.5217C39.6813 19.991 39.2641 20.3561 38.8469 20.3561H17.1531ZM17.1531 28.6998C16.6838 28.6998 16.3187 28.3348 16.3187 27.8654V25.7795C16.3187 25.3623 16.6838 24.9451 17.1531 24.9451H38.8469C39.2641 24.9451 39.6813 25.3623 39.6813 25.7795V27.8654C39.6813 28.3348 39.2641 28.6998 38.8469 28.6998H17.1531ZM17.1531 37.0436C16.6838 37.0436 16.3187 36.6785 16.3187 36.2092V34.1232C16.3187 33.7061 16.6838 33.2889 17.1531 33.2889H38.8469C39.2641 33.2889 39.6813 33.7061 39.6813 34.1232V36.2092C39.6813 36.6785 39.2641 37.0436 38.8469 37.0436H17.1531Z" fill="white"/>
</svg>
