<svg xmlns:xlink="http://www.w3.org/1999/xlink" xmlns="http://www.w3.org/2000/svg" id="Security" width="106.76" height="35.38" viewBox="0 0 106.76 35.38"><defs><style>.cls-1{fill:#fff;}</style></defs><path class="cls-1" d="M38.53,26.92c-1.07,0-1.94-.87-1.94-1.94v-13.9h.75v13.9c0,.65.53,1.19,1.19,1.19s1.19-.53,1.19-1.19v-13.99c0-1.13.92-2.05,2.05-2.05h19.93c1.13,0,2.05.92,2.05,2.05v4.56h-.75v-4.56c0-.72-.58-1.3-1.3-1.3h-19.93c-.72,0-1.3.58-1.3,1.3v13.99c0,1.07-.87,1.94-1.94,1.94"/><path class="cls-1" d="M56.59,26.92h-17.96c-1.13,0-2.05-.92-2.05-2.05V5.4c0-1.13.92-2.05,2.05-2.05h4.66c.49,0,.97.18,1.34.5l2.53,2.2c.24.2.54.32.85.32h10.4c1.13,0,2.05.92,2.05,2.05v1.27h-.75v-1.27c0-.72-.58-1.3-1.3-1.3h-10.4c-.49,0-.97-.18-1.34-.5l-2.53-2.2c-.24-.2-.54-.32-.85-.32h-4.66c-.71,0-1.3.58-1.3,1.3v19.48c0,.71.58,1.3,1.3,1.3h17.96v.75Z"/><path class="cls-1" d="M69.09,31.49h-11.46v-9.82h11.46v9.82ZM58.38,30.74h9.96v-8.32h-9.96v8.32Z"/><path class="cls-1" d="M67.53,22.42h-8.45v-1.87c0-2.33,1.9-4.23,4.22-4.23s4.23,1.9,4.23,4.23v1.87ZM59.83,21.67h6.95v-1.12c0-1.92-1.56-3.48-3.48-3.48s-3.47,1.56-3.47,3.48v1.12Z"/><path class="cls-1" d="M66.33,20.83h-.75v-.38c0-1.26-1.02-2.28-2.28-2.28s-2.28,1.02-2.28,2.28v.38h-.75v-.38c0-1.67,1.36-3.03,3.03-3.03s3.03,1.36,3.03,3.03v.38Z"/><path class="cls-1" d="M64.91,28.75h-3.1l.43-2.02c-.2-.25-.32-.57-.32-.89,0-.79.64-1.43,1.43-1.43s1.43.64,1.43,1.43c0,.32-.11.64-.32.89l.43,2.02ZM62.74,28h1.24l-.32-1.51.16-.14c.15-.13.23-.31.23-.5,0-.38-.31-.68-.68-.68s-.68.31-.68.68c0,.19.08.37.23.5l.16.14-.32,1.51Z"/></svg>